<svg viewBox="0 0 800 600" xmlns="http://www.w3.org/2000/svg">
  <!-- Phone Frame -->
  <rect x="250" y="50" width="300" height="500" rx="30" fill="#334155" />
  <rect x="260" y="60" width="280" height="480" rx="25" fill="#f8fafc" />
  
  <!-- Menu Items -->
  <rect x="280" y="100" width="240" height="80" rx="10" fill="#fef3c7" />
  <circle cx="320" cy="140" r="25" fill="#fbbf24" />
  <rect x="360" y="120" width="140" height="10" rx="2" fill="#92400e" />
  <rect x="360" y="140" width="80" height="10" rx="2" fill="#92400e" />
  
  <rect x="280" y="200" width="240" height="80" rx="10" fill="#fee2e2" />
  <circle cx="320" cy="240" r="25" fill="#f87171" />
  <rect x="360" y="220" width="140" height="10" rx="2" fill="#991b1b" />
  <rect x="360" y="240" width="80" height="10" rx="2" fill="#991b1b" />
  
  <rect x="280" y="300" width="240" height="80" rx="10" fill="#ecfccb" />
  <circle cx="320" cy="340" r="25" fill="#84cc16" />
  <rect x="360" y="320" width="140" height="10" rx="2" fill="#3f6212" />
  <rect x="360" y="340" width="80" height="10" rx="2" fill="#3f6212" />
  
  <!-- QR Code -->
  <rect x="280" y="400" width="100" height="100" rx="10" fill="#e2e8f0" />
  <path d="M290 410h80v80h-80z" fill="#334155" fill-opacity="0.1" />
  <rect x="300" y="420" width="60" height="60" rx="5" fill="#334155" fill-opacity="0.2" />
</svg>