<svg xmlns="http://www.w3.org/2000/svg" viewBox="0 0 200 200" width="200" height="200">
  <!-- Bowl -->
  <ellipse cx="100" cy="160" rx="80" ry="30" fill="#8b4513"/>
  <path d="M 20 160 Q 50 130, 150 130 Q 180 160, 20 160 Z" fill="#6b3f2b"/>

  <!-- Jollof Rice -->
  <path d="M 40 120 Q 60 95, 100 110 Q 140 95, 160 120 Q 150 140, 100 130 Q 50 140, 40 120 Z" fill="#e25822"/>
  <circle cx="70" cy="110" r="8" fill="#f4a300"/>
  <circle cx="110" cy="115" r="7" fill="#f4a300"/>
  <circle cx="90" cy="125" r="6" fill="#f4a300"/>
  <circle cx="100" cy="120" r="5" fill="#f4a300"/>

  <!-- Grilled Chicken -->
  <path d="M 80 80 Q 85 70, 100 75 Q 115 70, 120 80 Q 110 85, 95 85 Q 85 90, 80 80 Z" fill="#e2b97d"/>
  <path d="M 95 85 Q 105 90, 115 80" stroke="#5a3d2c" stroke-width="1.5" />
  <path d="M 90 80 Q 95 75, 105 75" stroke="#5a3d2c" stroke-width="1.5" />
  
  <!-- Chicken Details -->
  <circle cx="95" cy="82" r="1.5" fill="#5a3d2c"/>
  <circle cx="105" cy="82" r="1.5" fill="#5a3d2c"/>
</svg>
